<?xml version="1.0" encoding="UTF-8" standalone="no"?>
<!DOCTYPE svg PUBLIC "-//W3C//DTD SVG 1.1//EN" "http://www.w3.org/Graphics/SVG/1.1/DTD/svg11.dtd">
<!-- Generated by Microsoft Visio, SVG Export devops-01.svg Page-1 -->
<svg xmlns="http://www.w3.org/2000/svg" xmlns:xlink="http://www.w3.org/1999/xlink" xmlns:ev="http://www.w3.org/2001/xml-events"
		width="11.6929in" height="8.26772in" viewBox="0 0 841.89 595.276" xml:space="preserve" color-interpolation-filters="sRGB"
		class="st14">
	<style type="text/css">
	<![CDATA[
		.st1 {fill:none;stroke:#00b0f0;stroke-dasharray:11.25,6.75;stroke-linecap:round;stroke-linejoin:round;stroke-width:0.75}
		.st2 {fill:none;stroke:#ff0000;stroke-dasharray:3.6,2.16;stroke-linecap:round;stroke-linejoin:round;stroke-width:0.24}
		.st3 {fill:url(#grad0-9);stroke:none;stroke-linecap:butt;stroke-width:0.75}
		.st4 {fill:#ffffff;stroke:none;stroke-linecap:butt;stroke-width:0.75}
		.st5 {fill:#693cc5;stroke:none;stroke-linecap:butt;stroke-width:0.75}
		.st6 {fill:url(#grad0-30);stroke:none;stroke-linecap:butt;stroke-width:0.75}
		.st7 {fill:none;stroke:#000000;stroke-dasharray:1.68,1.2;stroke-linecap:round;stroke-linejoin:round;stroke-width:0.24}
		.st8 {fill:#248814;stroke:none;stroke-linecap:butt;stroke-width:0.75}
		.st9 {fill:url(#grad0-91);stroke:none;stroke-linecap:butt;stroke-width:0.75}
		.st10 {fill:none;stroke:none;stroke-linecap:round;stroke-linejoin:round;stroke-width:0.75}
		.st11 {fill:#000000;font-family:Calibri;font-size:1.00001em}
		.st12 {fill:none;stroke:#000000;stroke-dasharray:3.6,2.16;stroke-linecap:round;stroke-linejoin:round;stroke-width:0.24}
		.st13 {fill:url(#grad0-118);stroke:none;stroke-linecap:butt;stroke-width:0.75}
		.st14 {fill:none;fill-rule:evenodd;font-size:12px;overflow:visible;stroke-linecap:square;stroke-miterlimit:3}
	]]>
	</style>

	<defs id="Patterns_And_Gradients">
		<linearGradient id="grad0-9" x1="0" y1="0" x2="1" y2="0" gradientTransform="rotate(-45 0.5 0.5)">
			<stop offset="0" stop-color="#c8511b" stop-opacity="1"/>
			<stop offset="1" stop-color="#ff9900" stop-opacity="1"/>
		</linearGradient>
		<linearGradient id="grad0-30" x1="0" y1="0" x2="1" y2="0" gradientTransform="rotate(-45 0.5 0.5)">
			<stop offset="0" stop-color="#c8511b" stop-opacity="1"/>
			<stop offset="1" stop-color="#ff9900" stop-opacity="1"/>
		</linearGradient>
		<linearGradient id="grad0-91" x1="0" y1="0" x2="1" y2="0" gradientTransform="rotate(-45 0.5 0.5)">
			<stop offset="0" stop-color="#c8511b" stop-opacity="1"/>
			<stop offset="1" stop-color="#ff9900" stop-opacity="1"/>
		</linearGradient>
		<linearGradient id="grad0-118" x1="0" y1="0" x2="1" y2="0" gradientTransform="rotate(-45 0.5 0.5)">
			<stop offset="0" stop-color="#4d27a8" stop-opacity="1"/>
			<stop offset="1" stop-color="#a166ff" stop-opacity="1"/>
		</linearGradient>
	</defs>
	<g>
		<title>Page-1</title>
		<g id="shape170-1" transform="translate(107.955,-206.805)">
			<title>Box.170</title>
			<path d="M0 595.28 L625.32 595.28 L625.32 390.21 L0 390.21 L0 595.28 Z" class="st1"/>
		</g>
		<g id="shape161-3" transform="translate(79.3701,-100.063)">
			<title>Box.161</title>
			<path d="M0 595.28 L685.98 595.28 L685.98 325.98 L0 325.98 L0 595.28 Z" class="st2"/>
		</g>
		<g id="group7-5" transform="translate(399.596,-77.3858)">
			<title>Amazon EC2 Auto Scaling</title>
			<g id="shape8-6">
				<title>Orange_Gradient</title>
				<rect x="0" y="549.921" width="45.3543" height="45.3543" class="st3"/>
			</g>
			<g id="group9-10" transform="translate(7.55906,-7.5616)">
				<title>Icon_Test</title>
				<g id="shape10-11" transform="translate(10.8427,-22.3783)">
					<title>Sheet.10</title>
					<path d="M3.67 589.48 L3.67 595.28 L4.88 595.28 L4.88 589.48 L7.7 592.3 L8.55 591.44 L4.7 587.6 a0.604724 0.604724
								 -180 0 0 -0.858709 0 L0 591.44 L0.85 592.3 L3.67 589.48 Z" class="st4"/>
				</g>
				<g id="shape11-13" transform="translate(10.8427,0)">
					<title>Sheet.11</title>
					<path d="M4.88 593.21 L4.88 587.41 L3.67 587.41 L3.67 593.21 L0.85 590.39 L0 591.25 L3.85 595.1 a0.604724 0.604724
								 -180 0 0 0.858709 0 L8.55 591.25 L7.7 590.39 L4.88 593.21 Z" class="st4"/>
				</g>
				<g id="shape12-15" transform="translate(9.07087,-9.07437)">
					<title>Sheet.12</title>
					<path d="M10.28 584.49 L10.28 583.18 L9.07 583.18 L9.07 584.39 L7.86 584.39 L7.86 583.18 L6.65 583.18 L6.65 584.39
								 L5.44 584.39 L5.44 583.18 L4.23 583.18 L4.23 584.39 L3.02 584.39 L3.02 583.18 L1.81 583.18 L1.81
								 584.49 A1.02803 1.02803 -180 0 0 1.3 585 L0 585 L0 586.2 L1.21 586.2 L1.21 587.41 L0 587.41 L0 588.62
								 L1.21 588.62 L1.21 589.83 L0 589.83 L0 591.04 L1.21 591.04 L1.21 592.25 L0 592.25 L0 593.46 L1.3
								 593.46 A1.01594 1.01594 -180 0 0 1.81 593.98 L1.81 595.28 L3.02 595.28 L3.02 594.07 L4.23 594.07
								 L4.23 595.28 L5.44 595.28 L5.44 594.07 L6.65 594.07 L6.65 595.28 L7.86 595.28 L7.86 594.07 L9.07
								 594.07 L9.07 595.28 L10.28 595.28 L10.28 593.98 A1.01594 1.01594 -180 0 0 10.79 593.46 L12.09 593.46
								 L12.09 592.25 L10.89 592.25 L10.89 591.04 L12.09 591.04 L12.09 589.83 L10.89 589.83 L10.89 588.62
								 L12.09 588.62 L12.09 587.41 L10.89 587.41 L10.89 586.2 L12.09 586.2 L12.09 585 L10.79 585 A1.02803
								 1.02803 -180 0 0 10.28 584.49 ZM9.68 592.86 L2.42 592.86 L2.42 585.6 L9.68 585.6 L9.68 592.86 Z"
							class="st4"/>
				</g>
				<g id="shape13-17" transform="translate(0,-10.8039)">
					<title>Sheet.13</title>
					<path d="M3.79 586.72 L2.94 587.58 L5.74 590.35 L0 590.35 L0 591.56 L5.8 591.56 L2.94 594.42 L3.79 595.28 L7.64
								 591.43 a0.604724 0.604724 -180 0 0 0.17537 -0.429354 a0.604724 0.604724 -180 0 0 -0.17537 -0.423307
								 L3.79 586.72 Z" class="st4"/>
				</g>
				<g id="shape14-19" transform="translate(22.4171,-10.8039)">
					<title>Sheet.14</title>
					<path d="M7.82 590.35 L2.1 590.35 L4.88 587.58 L4.03 586.72 L0.18 590.58 a0.604724 0.604724 -180 0 0 -0.17537
								 0.423307 a0.604724 0.604724 -180 0 0 0.17537 0.429354 L4.03 595.28 L4.88 594.42 L2.02 591.56 L7.82
								 591.56 L7.82 590.35 Z" class="st4"/>
				</g>
			</g>
		</g>
		<g id="group21-21" transform="translate(403.937,-475.131)">
			<title>Amazon-VPC_Internet-Gateway_light-bg</title>
			<g id="shape22-22">
				<title>Sheet.22</title>
				<path d="M16.75 595.28 A23.685 23.685 0 1 1 40.43 571.59 A23.7052 23.7052 0 0 1 16.75 595.28 ZM16.75 549.92 A21.6693
							 21.6693 -180 1 0 38.42 571.59 A21.6894 21.6894 -180 0 0 16.75 549.92 Z" class="st5"/>
			</g>
			<g id="shape23-24" transform="translate(4.4014,-9.45386)">
				<title>Sheet.23</title>
				<path d="M23.69 595.28 L19.9 595.28 A1.00787 1.00787 0 0 1 18.89 594.27 L18.89 574.71 A14.4126 14.4126 -180 0 0 12.59
							 573.12 A14.7855 14.7855 -180 0 0 5.77 574.94 L5.77 594.27 A1.00787 1.00787 0 0 1 4.76 595.28 L1.01 595.28
							 A1.00787 1.00787 0 0 1 -0 594.27 L0 572.28 A1.00787 1.00787 0 0 1 0.34 571.52 A18.6255 18.6255 0 0 1
							 12.6 567.32 A19.1496 19.1496 0 0 1 24.31 571.06 A1.00787 1.00787 0 0 1 24.69 571.85 L24.69 594.27 A1.00787
							 1.00787 0 0 1 23.69 595.28 ZM20.9 593.26 L22.68 593.26 L22.68 572.35 A17.3153 17.3153 -180 0 0 12.6
							 569.32 A16.8617 16.8617 -180 0 0 2.02 572.73 L2.02 593.26 L3.75 593.26 L3.75 574.31 A1.00787 1.00787
							 0 0 1 4.3 573.4 A17.6882 17.6882 0 0 1 12.59 571.11 A17.2548 17.2548 0 0 1 20.22 573.12 L20.32 573.12
							 A1.00787 1.00787 0 0 1 20.9 574.04 L20.9 593.26 Z" class="st5"/>
			</g>
		</g>
		<g id="group52-26" transform="translate(179.398,-223.326)">
			<title>Amazon EC2.52</title>
			<g id="shape53-27">
				<title>Orange_Gradient</title>
				<rect x="0" y="549.921" width="45.3543" height="45.3543" class="st6"/>
			</g>
			<g id="group54-31" transform="translate(7.55301,-7.55906)">
				<title>Icon_Test</title>
				<g id="shape55-32" transform="translate(13.3039,-13.3039)">
					<title>Sheet.55</title>
					<path d="M15.72 595.28 L12.7 595.28 L12.7 594.07 L15.72 594.07 L15.72 579.55 L1.21 579.55 L1.21 582.58 L0 582.58
								 L0 579.55 A1.20945 1.20945 0 0 1 1.21 578.34 L15.72 578.34 A1.20945 1.20945 0 0 1 16.93 579.55 L16.93
								 594.07 A1.20945 1.20945 0 0 1 15.72 595.28 Z" class="st4"/>
				</g>
				<g id="shape56-34">
					<title>Sheet.56</title>
					<path d="M15.72 595.28 L1.21 595.28 A1.20945 1.20945 0 0 1 0 594.07 L0 579.55 A1.20945 1.20945 0 0 1 1.21 578.34
								 L4.23 578.34 L4.23 579.55 L1.21 579.55 L1.21 594.07 L15.72 594.07 L15.72 591.04 L16.93 591.04 L16.93
								 594.07 A1.20945 1.20945 0 0 1 15.72 595.28 Z" class="st4"/>
				</g>
				<g id="shape57-36" transform="translate(5.44857,-5.44252)">
					<title>Sheet.57</title>
					<path d="M19.35 580.16 L19.35 578.95 L17.54 578.95 A1.3183 1.3183 -180 0 0 16.33 577.74 L16.33 575.92 L15.12
								 575.92 L15.12 577.74 L13.3 577.74 L13.3 575.92 L12.09 575.92 L12.09 577.74 L10.28 577.74 L10.28
								 575.92 L9.07 575.92 L9.07 577.74 L7.26 577.74 L7.26 575.92 L6.05 575.92 L6.05 577.74 L4.23 577.74
								 L4.23 575.92 L3.02 575.92 L3.02 577.74 A1.3183 1.3183 -180 0 0 1.81 578.95 L0 578.95 L0 580.16 L1.81
								 580.16 L1.81 581.97 L0 581.97 L0 583.18 L1.81 583.18 L1.81 585 L0 585 L0 586.2 L1.81 586.2 L1.81
								 588.02 L0 588.02 L0 589.23 L1.81 589.23 L1.81 591.04 L0 591.04 L0 592.25 L1.81 592.25 A1.3183 1.3183
								 -180 0 0 3.02 593.46 L3.02 595.28 L4.23 595.28 L4.23 593.46 L6.05 593.46 L6.05 595.28 L7.26 595.28
								 L7.26 593.46 L9.07 593.46 L9.07 595.28 L10.28 595.28 L10.28 593.46 L12.09 593.46 L12.09 595.28 L13.3
								 595.28 L13.3 593.46 L15.12 593.46 L15.12 595.28 L16.33 595.28 L16.33 593.46 A1.3183 1.3183 -180
								 0 0 17.54 592.25 L19.35 592.25 L19.35 591.04 L17.54 591.04 L17.54 589.23 L19.35 589.23 L19.35 588.02
								 L17.54 588.02 L17.54 586.2 L19.35 586.2 L19.35 585 L17.54 585 L17.54 583.18 L19.35 583.18 L19.35
								 581.97 L17.54 581.97 L17.54 580.16 L19.35 580.16 ZM16.33 592.14 a0.10885 0.10885 0 0 1 -0.10885
								 0.10885 L3.13 592.25 a0.10885 0.10885 0 0 1 -0.10885 -0.10885 L3.02 579.06 a0.10885 0.10885 0 0
								 1 0.10885 -0.10885 L16.22 578.95 a0.10885 0.10885 0 0 1 0.10885 0.10885 L16.33 592.14 Z"
							class="st4"/>
				</g>
			</g>
		</g>
		<g id="shape58-38" transform="translate(131.209,-175.137)">
			<title>Box</title>
			<path d="M0 595.28 L141.73 595.28 L141.73 453.54 L0 453.54 L0 595.28 Z" class="st7"/>
		</g>
		<g id="group36-40" transform="translate(116.903,-162.157)">
			<title>Public subnet</title>
			<g id="shape37-41">
				<title>Sheet.37</title>
				<rect x="0" y="566.929" width="28.3465" height="28.3465" class="st8"/>
			</g>
			<g id="shape38-43" transform="translate(12.2524,-7.42677)">
				<title>Sheet.38</title>
				<path d="M1.93 588.8 A1.92756 1.92756 -180 0 0 1.52 592.61 L1.52 595.28 L2.33 595.28 L2.33 592.61 A1.92756 1.92756
							 -180 0 0 1.93 588.8 ZM1.93 591.84 A1.11766 1.11766 0 1 1 3.05 590.72 A1.11766 1.11766 0 0 1 1.93 591.84
							 Z" class="st4"/>
			</g>
			<g id="shape39-45" transform="translate(7.40247,-5.19145)">
				<title>Sheet.39</title>
				<path d="M11 583.7 L11 581.54 A4.22767 4.22767 -180 0 0 2.54 581.54 L2.54 583.7 L0 583.7 L0 595.28 L13.54 595.28
							 L13.54 583.7 L11 583.7 ZM3.35 581.54 A3.41777 3.41777 0 0 1 10.19 581.54 L10.19 583.7 L3.35 583.7 L3.35
							 581.54 ZM12.73 594.5 L0.81 594.5 L0.81 584.51 L12.73 584.51 L12.73 594.5 Z" class="st4"/>
			</g>
		</g>
		<g id="group139-47" transform="translate(399.016,-223.326)">
			<title>Amazon EC2.139</title>
			<g id="shape140-48">
				<title>Orange_Gradient</title>
				<rect x="0" y="549.921" width="45.3543" height="45.3543" class="st6"/>
			</g>
			<g id="group141-51" transform="translate(7.55301,-7.55906)">
				<title>Icon_Test</title>
				<g id="shape142-52" transform="translate(13.3039,-13.3039)">
					<title>Sheet.142</title>
					<path d="M15.72 595.28 L12.7 595.28 L12.7 594.07 L15.72 594.07 L15.72 579.55 L1.21 579.55 L1.21 582.58 L0 582.58
								 L0 579.55 A1.20945 1.20945 0 0 1 1.21 578.34 L15.72 578.34 A1.20945 1.20945 0 0 1 16.93 579.55 L16.93
								 594.07 A1.20945 1.20945 0 0 1 15.72 595.28 Z" class="st4"/>
				</g>
				<g id="shape143-54">
					<title>Sheet.143</title>
					<path d="M15.72 595.28 L1.21 595.28 A1.20945 1.20945 0 0 1 0 594.07 L0 579.55 A1.20945 1.20945 0 0 1 1.21 578.34
								 L4.23 578.34 L4.23 579.55 L1.21 579.55 L1.21 594.07 L15.72 594.07 L15.72 591.04 L16.93 591.04 L16.93
								 594.07 A1.20945 1.20945 0 0 1 15.72 595.28 Z" class="st4"/>
				</g>
				<g id="shape144-56" transform="translate(5.44857,-5.44252)">
					<title>Sheet.144</title>
					<path d="M19.35 580.16 L19.35 578.95 L17.54 578.95 A1.3183 1.3183 -180 0 0 16.33 577.74 L16.33 575.92 L15.12
								 575.92 L15.12 577.74 L13.3 577.74 L13.3 575.92 L12.09 575.92 L12.09 577.74 L10.28 577.74 L10.28
								 575.92 L9.07 575.92 L9.07 577.74 L7.26 577.74 L7.26 575.92 L6.05 575.92 L6.05 577.74 L4.23 577.74
								 L4.23 575.92 L3.02 575.92 L3.02 577.74 A1.3183 1.3183 -180 0 0 1.81 578.95 L0 578.95 L0 580.16 L1.81
								 580.16 L1.81 581.97 L0 581.97 L0 583.18 L1.81 583.18 L1.81 585 L0 585 L0 586.2 L1.81 586.2 L1.81
								 588.02 L0 588.02 L0 589.23 L1.81 589.23 L1.81 591.04 L0 591.04 L0 592.25 L1.81 592.25 A1.3183 1.3183
								 -180 0 0 3.02 593.46 L3.02 595.28 L4.23 595.28 L4.23 593.46 L6.05 593.46 L6.05 595.28 L7.26 595.28
								 L7.26 593.46 L9.07 593.46 L9.07 595.28 L10.28 595.28 L10.28 593.46 L12.09 593.46 L12.09 595.28 L13.3
								 595.28 L13.3 593.46 L15.12 593.46 L15.12 595.28 L16.33 595.28 L16.33 593.46 A1.3183 1.3183 -180
								 0 0 17.54 592.25 L19.35 592.25 L19.35 591.04 L17.54 591.04 L17.54 589.23 L19.35 589.23 L19.35 588.02
								 L17.54 588.02 L17.54 586.2 L19.35 586.2 L19.35 585 L17.54 585 L17.54 583.18 L19.35 583.18 L19.35
								 581.97 L17.54 581.97 L17.54 580.16 L19.35 580.16 ZM16.33 592.14 a0.10885 0.10885 0 0 1 -0.10885
								 0.10885 L3.13 592.25 a0.10885 0.10885 0 0 1 -0.10885 -0.10885 L3.02 579.06 a0.10885 0.10885 0 0
								 1 0.10885 -0.10885 L16.22 578.95 a0.10885 0.10885 0 0 1 0.10885 0.10885 L16.33 592.14 Z"
							class="st4"/>
				</g>
			</g>
		</g>
		<g id="shape145-58" transform="translate(350.827,-175.137)">
			<title>Box.145</title>
			<path d="M0 595.28 L141.73 595.28 L141.73 453.54 L0 453.54 L0 595.28 Z" class="st7"/>
		</g>
		<g id="group146-60" transform="translate(336.521,-162.157)">
			<title>Public subnet.146</title>
			<g id="shape147-61">
				<title>Sheet.147</title>
				<rect x="0" y="566.929" width="28.3465" height="28.3465" class="st8"/>
			</g>
			<g id="shape148-63" transform="translate(12.2524,-7.42677)">
				<title>Sheet.148</title>
				<path d="M1.93 588.8 A1.92756 1.92756 -180 0 0 1.52 592.61 L1.52 595.28 L2.33 595.28 L2.33 592.61 A1.92756 1.92756
							 -180 0 0 1.93 588.8 ZM1.93 591.84 A1.11766 1.11766 0 1 1 3.05 590.72 A1.11766 1.11766 0 0 1 1.93 591.84
							 Z" class="st4"/>
			</g>
			<g id="shape149-65" transform="translate(7.40247,-5.19145)">
				<title>Sheet.149</title>
				<path d="M11 583.7 L11 581.54 A4.22767 4.22767 -180 0 0 2.54 581.54 L2.54 583.7 L0 583.7 L0 595.28 L13.54 595.28
							 L13.54 583.7 L11 583.7 ZM3.35 581.54 A3.41777 3.41777 0 0 1 10.19 581.54 L10.19 583.7 L3.35 583.7 L3.35
							 581.54 ZM12.73 594.5 L0.81 594.5 L0.81 584.51 L12.73 584.51 L12.73 594.5 Z" class="st4"/>
			</g>
		</g>
		<g id="group150-67" transform="translate(611.615,-223.326)">
			<title>Amazon EC2.150</title>
			<g id="shape151-68">
				<title>Orange_Gradient</title>
				<rect x="0" y="549.921" width="45.3543" height="45.3543" class="st6"/>
			</g>
			<g id="group152-71" transform="translate(7.55301,-7.55906)">
				<title>Icon_Test</title>
				<g id="shape153-72" transform="translate(13.3039,-13.3039)">
					<title>Sheet.153</title>
					<path d="M15.72 595.28 L12.7 595.28 L12.7 594.07 L15.72 594.07 L15.72 579.55 L1.21 579.55 L1.21 582.58 L0 582.58
								 L0 579.55 A1.20945 1.20945 0 0 1 1.21 578.34 L15.72 578.34 A1.20945 1.20945 0 0 1 16.93 579.55 L16.93
								 594.07 A1.20945 1.20945 0 0 1 15.72 595.28 Z" class="st4"/>
				</g>
				<g id="shape154-74">
					<title>Sheet.154</title>
					<path d="M15.72 595.28 L1.21 595.28 A1.20945 1.20945 0 0 1 0 594.07 L0 579.55 A1.20945 1.20945 0 0 1 1.21 578.34
								 L4.23 578.34 L4.23 579.55 L1.21 579.55 L1.21 594.07 L15.72 594.07 L15.72 591.04 L16.93 591.04 L16.93
								 594.07 A1.20945 1.20945 0 0 1 15.72 595.28 Z" class="st4"/>
				</g>
				<g id="shape155-76" transform="translate(5.44857,-5.44252)">
					<title>Sheet.155</title>
					<path d="M19.35 580.16 L19.35 578.95 L17.54 578.95 A1.3183 1.3183 -180 0 0 16.33 577.74 L16.33 575.92 L15.12
								 575.92 L15.12 577.74 L13.3 577.74 L13.3 575.92 L12.09 575.92 L12.09 577.74 L10.28 577.74 L10.28
								 575.92 L9.07 575.92 L9.07 577.74 L7.26 577.74 L7.26 575.92 L6.05 575.92 L6.05 577.74 L4.23 577.74
								 L4.23 575.92 L3.02 575.92 L3.02 577.74 A1.3183 1.3183 -180 0 0 1.81 578.95 L0 578.95 L0 580.16 L1.81
								 580.16 L1.81 581.97 L0 581.97 L0 583.18 L1.81 583.18 L1.81 585 L0 585 L0 586.2 L1.81 586.2 L1.81
								 588.02 L0 588.02 L0 589.23 L1.81 589.23 L1.81 591.04 L0 591.04 L0 592.25 L1.81 592.25 A1.3183 1.3183
								 -180 0 0 3.02 593.46 L3.02 595.28 L4.23 595.28 L4.23 593.46 L6.05 593.46 L6.05 595.28 L7.26 595.28
								 L7.26 593.46 L9.07 593.46 L9.07 595.28 L10.28 595.28 L10.28 593.46 L12.09 593.46 L12.09 595.28 L13.3
								 595.28 L13.3 593.46 L15.12 593.46 L15.12 595.28 L16.33 595.28 L16.33 593.46 A1.3183 1.3183 -180
								 0 0 17.54 592.25 L19.35 592.25 L19.35 591.04 L17.54 591.04 L17.54 589.23 L19.35 589.23 L19.35 588.02
								 L17.54 588.02 L17.54 586.2 L19.35 586.2 L19.35 585 L17.54 585 L17.54 583.18 L19.35 583.18 L19.35
								 581.97 L17.54 581.97 L17.54 580.16 L19.35 580.16 ZM16.33 592.14 a0.10885 0.10885 0 0 1 -0.10885
								 0.10885 L3.13 592.25 a0.10885 0.10885 0 0 1 -0.10885 -0.10885 L3.02 579.06 a0.10885 0.10885 0 0
								 1 0.10885 -0.10885 L16.22 578.95 a0.10885 0.10885 0 0 1 0.10885 0.10885 L16.33 592.14 Z"
							class="st4"/>
				</g>
			</g>
		</g>
		<g id="shape156-78" transform="translate(563.426,-175.137)">
			<title>Box.156</title>
			<path d="M0 595.28 L141.73 595.28 L141.73 453.54 L0 453.54 L0 595.28 Z" class="st7"/>
		</g>
		<g id="group157-80" transform="translate(549.12,-162.53)">
			<title>Public subnet.157</title>
			<g id="shape158-81">
				<title>Sheet.158</title>
				<rect x="0" y="566.929" width="28.3465" height="28.3465" class="st8"/>
			</g>
			<g id="shape159-83" transform="translate(12.2524,-7.42677)">
				<title>Sheet.159</title>
				<path d="M1.93 588.8 A1.92756 1.92756 -180 0 0 1.52 592.61 L1.52 595.28 L2.33 595.28 L2.33 592.61 A1.92756 1.92756
							 -180 0 0 1.93 588.8 ZM1.93 591.84 A1.11766 1.11766 0 1 1 3.05 590.72 A1.11766 1.11766 0 0 1 1.93 591.84
							 Z" class="st4"/>
			</g>
			<g id="shape160-85" transform="translate(7.40247,-5.19145)">
				<title>Sheet.160</title>
				<path d="M11 583.7 L11 581.54 A4.22767 4.22767 -180 0 0 2.54 581.54 L2.54 583.7 L0 583.7 L0 595.28 L13.54 595.28
							 L13.54 583.7 L11 583.7 ZM3.35 581.54 A3.41777 3.41777 0 0 1 10.19 581.54 L10.19 583.7 L3.35 583.7 L3.35
							 581.54 ZM12.73 594.5 L0.81 594.5 L0.81 584.51 L12.73 584.51 L12.73 594.5 Z" class="st4"/>
			</g>
		</g>
		<g id="group162-87" transform="translate(399.088,-389.197)">
			<title>Elastic Load Balancing (ELB)</title>
			<g id="shape163-88">
				<title>Orange_Gradient</title>
				<rect x="0" y="549.921" width="45.3543" height="45.3543" class="st9"/>
			</g>
			<g id="shape164-92" transform="translate(7.8976,-9.50776)">
				<title>Sheet.164</title>
				<path d="M22.06 582.71 A3.76139 3.76139 -180 1 0 22.06 581.5 L17.55 581.5 A8.53266 8.53266 -180 0 0 16.7 578.3 L22.15
							 573.69 A3.76139 3.76139 -180 1 0 20.72 570.75 A3.67672 3.67672 -180 0 0 21.32 572.81 L16.06 577.24 A8.7685
							 8.7685 -180 1 0 16.06 586.97 L21.32 591.41 A3.67672 3.67672 -180 0 0 20.72 593.46 A3.75534 3.75534 -180
							 1 0 22.15 590.52 L16.7 585.92 A8.53266 8.53266 -180 0 0 17.55 582.71 L22.06 582.71 ZM25.76 579.55 A2.55194
							 2.55194 0 1 1 23.22 582.11 A2.55194 2.55194 0 0 1 25.76 579.55 ZM24.5 568.2 A2.55194 2.55194 0 1 1 21.95
							 570.75 A2.55194 2.55194 0 0 1 24.5 568.2 ZM24.5 590.92 A2.55194 2.55194 0 1 1 21.95 593.46 A2.55194
							 2.55194 0 0 1 24.5 590.92 ZM8.8 589.67 A7.55906 7.55906 0 1 1 16.36 582.11 A7.57115 7.57115 0 0 1 8.8
							 589.67 Z" class="st4"/>
			</g>
		</g>
		<g id="shape166-94" transform="translate(130.378,-325.216)">
			<title>Sheet.166</title>
			<desc>Availability Zone 1A</desc>
			<rect x="0" y="575.276" width="141.732" height="20" class="st10"/>
			<text x="22.84" y="588.88" class="st11">Availability Zone 1A</text>		</g>
		<g id="shape168-97" transform="translate(351.408,-325.216)">
			<title>Sheet.168</title>
			<desc>Availability Zone 1B</desc>
			<rect x="0" y="575.276" width="141.732" height="20" class="st10"/>
			<text x="23.04" y="588.88" class="st11">Availability Zone 1B</text>		</g>
		<g id="shape169-100" transform="translate(561.26,-325.216)">
			<title>Sheet.169</title>
			<desc>Availability Zone 1C</desc>
			<rect x="0" y="575.276" width="141.732" height="20" class="st10"/>
			<text x="23.11" y="588.88" class="st11">Availability Zone 1C</text>		</g>
		<g id="shape171-103" transform="translate(202.826,-155.137)">
			<title>Sheet.171</title>
			<desc>10.0.0.0/24</desc>
			<rect x="0" y="575.276" width="70.8661" height="20" class="st10"/>
			<text x="7.28" y="588.88" class="st11">10.0.0.0/24</text>		</g>
		<g id="shape172-106" transform="translate(421.766,-157.98)">
			<title>Sheet.172</title>
			<desc>10.0.1.0/24</desc>
			<rect x="0" y="575.276" width="70.8661" height="20" class="st10"/>
			<text x="7.28" y="588.88" class="st11">10.0.1.0/24</text>		</g>
		<g id="shape173-109" transform="translate(633.954,-155.137)">
			<title>Sheet.173</title>
			<desc>10.0.2.0/24</desc>
			<rect x="0" y="575.276" width="70.8661" height="20" class="st10"/>
			<text x="7.28" y="588.88" class="st11">10.0.2.0/24</text>		</g>
		<g id="shape175-112" transform="translate(32.0763,-34.8661)">
			<title>Box.175</title>
			<path d="M0 595.28 L775.8 595.28 L775.8 132.33 L0 132.33 L0 595.28 Z" class="st12"/>
		</g>
		<g id="group15-114" transform="translate(18.2984,-484.307)">
			<title>Amazon VPC</title>
			<g id="shape16-115">
				<title>Purple_Gradient</title>
				<rect x="0" y="566.929" width="28.3465" height="28.3465" class="st13"/>
			</g>
			<g id="group17-119" transform="translate(4.72063,-5.19307)">
				<title>Icon_Test</title>
				<g id="shape18-120" transform="translate(0,-5.57102)">
					<title>Sheet.18</title>
					<path d="M9.05 595.28 L3.76 595.28 C1.69 595.28 0.11 593.89 0 591.99 C0 591.91 0 591.82 0 591.73 A3.4885 3.4885
								 0 0 1 2.57 588.22 C2.57 588.12 2.57 588.02 2.57 587.92 A5.15528 5.15528 0 0 1 11.42 584.42 A5.77512
								 5.77512 0 0 1 12.6 586.12 A2.33197 2.33197 0 0 1 14.07 585.61 C15.16 585.61 16.34 586.39 16.53 588.13
								 A4.15748 4.15748 0 0 1 18.91 589.54 L18.32 590.01 A3.60189 3.60189 -180 0 0 16.12 588.81 a0.377953
								 0.377953 0 0 1 -0.31748 -0.351496 C15.72 587.01 14.87 586.36 14.07 586.36 A1.62898 1.62898 -180
								 0 0 12.77 587.02 a0.377953 0.377953 0 0 1 -0.355276 0.147402 a0.377953 0.377953 0 0 1 -0.298583
								 -0.245669 A5.22709 5.22709 -180 0 0 10.89 584.97 A4.40315 4.40315 -180 0 0 3.33 587.92 A5.12126
								 5.12126 -180 0 0 3.36 588.46 a0.377953 0.377953 0 0 1 -0.283465 0.404409 C2.22 589.08 0.77 589.73
								 0.77 591.73 A1.84063 1.84063 -180 0 0 0.77 591.93 C0.86 593.45 2.12 594.52 3.8 594.52 L9.09 594.52
								 L9.05 595.28 Z" class="st4"/>
				</g>
				<g id="shape19-122" transform="translate(9.80787,-1.13687E-13)">
					<title>Sheet.19</title>
					<path d="M4.54 595.28 C0.05 595.28 0 590.24 0 590.19 L0 585.59 a0.377953 0.377953 0 0 1 0.245669 -0.355276 L4.4
								 583.7 a0.39685 0.39685 0 0 1 0.264567 0 L8.83 585.23 a0.377953 0.377953 0 0 1 0.245669 0.355276
								 L9.07 590.47 C9.07 590.52 9.02 595.28 4.54 595.28 ZM0.76 585.85 L0.76 590.19 C0.76 590.37 0.81 594.52
								 4.54 594.52 C8.26 594.52 8.31 590.64 8.31 590.47 L8.31 585.85 L4.54 584.45 L0.76 585.85 Z"
							class="st4"/>
				</g>
				<g id="shape20-124" transform="translate(11.3169,-1.41354)">
					<title>Sheet.20</title>
					<path d="M3.03 595.28 C0.62 595.28 0.03 592.23 0 592.1 a0.207874 0.207874 0 0 1 4.71845E-15 -0.0680315 L0 588.11
								 a0.377953 0.377953 0 0 1 0.23811 -0.351496 L2.89 586.72 a0.377953 0.377953 0 0 1 0.279685 0 L5.81
								 587.76 a0.377953 0.377953 0 0 1 0.23811 0.351496 L6.05 592.03 a0.415748 0.415748 0 0 1 7.10543E-15
								 0.0680315 C6.02 592.23 5.43 595.28 3.03 595.28 ZM0.76 591.99 C0.82 592.28 1.36 594.52 3.03 594.52
								 C4.69 594.52 5.23 592.28 5.29 591.99 L5.29 588.37 L3.03 587.48 L0.76 588.37 L0.76 591.99 Z"
							class="st4"/>
				</g>
			</g>
		</g>
		<g id="shape176-126" transform="translate(446.457,-102.74)">
			<title>Sheet.176</title>
			<desc>Auto Scaling</desc>
			<rect x="0" y="575.276" width="70.8661" height="20" class="st10"/>
			<text x="5.38" y="588.88" class="st11">Auto Scaling</text>		</g>
		<g id="shape177-129" transform="translate(446.308,-414.551)">
			<title>Sheet.177</title>
			<desc>Application Load Balancer</desc>
			<rect x="0" y="575.276" width="134.795" height="20" class="st10"/>
			<text x="4.17" y="588.88" class="st11">Application Load Balancer</text>		</g>
		<g id="shape178-132" transform="translate(47.3684,-500.486)">
			<title>Sheet.178</title>
			<desc>Custom VPC</desc>
			<rect x="0" y="575.276" width="70.8661" height="20" class="st10"/>
			<text x="5.71" y="588.88" class="st11">Custom VPC</text>		</g>
	</g>
</svg>
